<svg width="15" height="16" viewBox="0 0 15 16" fill="none" xmlns="http://www.w3.org/2000/svg">
<path fill-rule="evenodd" clip-rule="evenodd" d="M0.980739 1.54243C0.980739 0.824462 1.56277 0.242432 2.28074 0.242432H13.6807C14.3987 0.242432 14.9807 0.824462 14.9807 1.54243C14.9807 2.2604 14.3987 2.84243 13.6807 2.84243H2.28074C1.56277 2.84243 0.980739 2.2604 0.980739 1.54243ZM0.980469 7.7397C0.980469 7.02173 1.5625 6.4397 2.28047 6.4397H13.6805C14.3984 6.4397 14.9805 7.02173 14.9805 7.7397C14.9805 8.45767 14.3984 9.0397 13.6805 9.0397H2.28047C1.5625 9.0397 0.980469 8.45767 0.980469 7.7397ZM2.28047 12.637C1.5625 12.637 0.980469 13.219 0.980469 13.937C0.980469 14.6549 1.5625 15.237 2.28047 15.237H7.68047C8.39844 15.237 8.98047 14.6549 8.98047 13.937C8.98047 13.219 8.39844 12.637 7.68047 12.637H2.28047Z" fill="#363A45"/>
</svg>
