<svg width="18" height="12" viewBox="0 0 18 12" fill="none" xmlns="http://www.w3.org/2000/svg">
<mask id="path-1-inside-1_4749_31540" fill="white">
<path fill-rule="evenodd" clip-rule="evenodd" d="M0.275391 1.12464C0.275391 0.511067 0.772786 0.0136719 1.38635 0.0136719H11.1078C11.7214 0.0136719 12.2188 0.511067 12.2188 1.12464V2.73855H14.9516C15.3865 2.73855 15.7815 2.99238 15.9621 3.38805L17.175 6.04424C17.2412 6.18909 17.2754 6.34646 17.2754 6.5057V8.6786C17.2754 9.29217 16.778 9.78957 16.1644 9.78957H11.6665V9.78878H1.38636C0.772787 9.78878 0.275391 9.29139 0.275391 8.67782V1.12464Z"/>
</mask>
<path d="M12.2188 2.73855H11.5188V3.43855H12.2188V2.73855ZM15.9621 3.38805L15.3254 3.67881L15.9621 3.38805ZM17.175 6.04424L16.5383 6.335L16.5383 6.335L17.175 6.04424ZM11.6665 9.78957H10.9665V10.4896H11.6665V9.78957ZM11.6665 9.78878H12.3665V9.08878H11.6665V9.78878ZM1.38635 -0.686328C0.386187 -0.686328 -0.424609 0.124467 -0.424609 1.12464H0.975391C0.975391 0.897667 1.15939 0.713672 1.38635 0.713672V-0.686328ZM11.1078 -0.686328H1.38635V0.713672H11.1078V-0.686328ZM12.9188 1.12464C12.9188 0.124467 12.108 -0.686328 11.1078 -0.686328V0.713672C11.3348 0.713672 11.5188 0.897668 11.5188 1.12464H12.9188ZM12.9188 2.73855V1.12464H11.5188V2.73855H12.9188ZM14.9516 2.03855H12.2188V3.43855H14.9516V2.03855ZM16.5989 3.0973C16.3044 2.45232 15.6606 2.03855 14.9516 2.03855V3.43855C15.1125 3.43855 15.2586 3.53244 15.3254 3.67881L16.5989 3.0973ZM17.8118 5.75349L16.5989 3.0973L15.3254 3.67881L16.5383 6.335L17.8118 5.75349ZM17.9754 6.5057C17.9754 6.24614 17.9196 5.9896 17.8118 5.75348L16.5383 6.335C16.5627 6.38858 16.5754 6.44679 16.5754 6.5057H17.9754ZM17.9754 8.6786V6.5057H16.5754V8.6786H17.9754ZM16.1644 10.4896C17.1646 10.4896 17.9754 9.67877 17.9754 8.6786H16.5754C16.5754 8.90557 16.3914 9.08957 16.1644 9.08957V10.4896ZM11.6665 10.4896H16.1644V9.08957H11.6665V10.4896ZM10.9665 9.78878V9.78957H12.3665V9.78878H10.9665ZM1.38636 10.4888H11.6665V9.08878H1.38636V10.4888ZM-0.424609 8.67782C-0.424609 9.67799 0.386189 10.4888 1.38636 10.4888V9.08878C1.15939 9.08878 0.975391 8.90479 0.975391 8.67782H-0.424609ZM-0.424609 1.12464V8.67782H0.975391V1.12464H-0.424609Z" fill="#363A45" mask="url(#path-1-inside-1_4749_31540)"/>
<path d="M14.7076 3.85352H12.8589C12.7362 3.85352 12.6367 3.95299 12.6367 4.07571V6.15481C12.6367 6.27753 12.7362 6.377 12.8589 6.377H15.7342C15.896 6.377 16.0035 6.20967 15.9363 6.06252L15.019 4.05369C14.9634 3.93175 14.8416 3.85352 14.7076 3.85352Z" fill="#00C65E"/>
<path d="M11.079 9.29662C11.079 10.1225 11.7486 10.7921 12.5745 10.7921C13.4004 10.7921 14.0699 10.1225 14.0699 9.29662C14.0699 8.47071 13.4004 7.80117 12.5745 7.80117C11.7486 7.80117 11.079 8.47071 11.079 9.29662Z" fill="white" stroke="#363A45" stroke-width="0.7"/>
<path d="M12.5743 10.2205C12.0647 10.2205 11.6516 9.80733 11.6516 9.29773C11.6516 8.78812 12.0647 8.375 12.5743 8.375C13.084 8.375 13.4971 8.78812 13.4971 9.29773C13.4971 9.80733 13.084 10.2205 12.5743 10.2205Z" fill="#00C65E"/>
<path d="M3.48137 9.29662C3.48137 10.1225 4.1509 10.7921 4.97682 10.7921C5.80273 10.7921 6.47227 10.1225 6.47227 9.29662C6.47227 8.47071 5.80273 7.80117 4.97682 7.80117C4.1509 7.80117 3.48137 8.47071 3.48137 9.29662Z" fill="white" stroke="#363A45" stroke-width="0.7"/>
<path d="M4.97669 10.2205C4.46708 10.2205 4.05397 9.80733 4.05397 9.29773C4.05397 8.78812 4.46708 8.375 4.97669 8.375C5.4863 8.375 5.89941 8.78812 5.89941 9.29773C5.89941 9.80733 5.4863 10.2205 4.97669 10.2205Z" fill="#00C65E"/>
</svg>
