<svg width="17" height="18" viewBox="0 0 17 18" fill="none" xmlns="http://www.w3.org/2000/svg">
<path fill-rule="evenodd" clip-rule="evenodd" d="M0.425589 0.525391C0.204675 0.525391 0.025589 0.704477 0.025589 0.925391C0.025589 1.1463 0.204675 1.32539 0.425589 1.32539H0.937936C1.65582 1.32539 2.28583 1.80354 2.47895 2.49496L4.72118 10.5224C4.72583 10.5391 4.73147 10.5552 4.73802 10.5707L4.98903 11.4966C5.15443 12.1067 5.70814 12.5303 6.34025 12.5303H14.0052C14.6373 12.5303 15.191 12.1067 15.3564 11.4966L16.944 5.64051C17.1854 4.75039 16.5151 3.87418 15.5928 3.87418H3.69482L3.24946 2.27974C2.95977 1.24261 2.01476 0.525391 0.937936 0.525391H0.425589ZM5.76116 11.2873L3.96829 4.67418H15.5928C15.9881 4.67418 16.2753 5.0497 16.1719 5.43118L14.5843 11.2873C14.5134 11.5487 14.2761 11.7303 14.0052 11.7303H6.34025C6.06935 11.7303 5.83204 11.5487 5.76116 11.2873Z" fill="white"/>
<path d="M8.70181 15.6763C8.70181 16.4622 8.06399 17.1 7.27643 17.1C6.48887 17.1 5.85105 16.4622 5.85105 15.6763C5.85105 14.8903 6.48887 14.2525 7.27643 14.2525C8.06399 14.2525 8.70181 14.8903 8.70181 15.6763Z" stroke="white" stroke-width="0.8"/>
<path d="M14.4943 15.6763C14.4943 16.4622 13.8565 17.1 13.0689 17.1C12.2814 17.1 11.6436 16.4622 11.6436 15.6763C11.6436 14.8903 12.2814 14.2525 13.0689 14.2525C13.8565 14.2525 14.4943 14.8903 14.4943 15.6763Z" stroke="white" stroke-width="0.8"/>
</svg>
