<svg width="18" height="18" viewBox="0 0 18 18" fill="none" xmlns="http://www.w3.org/2000/svg">
<path d="M1.32808 0.902344C1.14022 0.902344 0.960055 0.976972 0.827217 1.10981C0.694379 1.24265 0.619751 1.42282 0.619751 1.61068C0.619751 1.79854 0.694379 1.97871 0.827217 2.11154C0.960055 2.24438 1.14022 2.31901 1.32808 2.31901H1.67658C1.83039 2.31928 1.97994 2.3696 2.10262 2.46238C2.22529 2.55515 2.31444 2.68534 2.35658 2.83326L4.60342 10.6958C4.7305 11.1395 4.99858 11.5297 5.36715 11.8076C5.73571 12.0854 6.1847 12.2357 6.64625 12.2357H13.119C13.5438 12.2357 13.9588 12.1085 14.3106 11.8704C14.6624 11.6323 14.9347 11.2942 15.0924 10.8998L17.1806 5.67793C17.2664 5.46306 17.2983 5.23043 17.2735 5.00038C17.2487 4.77033 17.1679 4.54986 17.0382 4.35824C16.9085 4.16663 16.7338 4.0097 16.5295 3.90117C16.3251 3.79264 16.0973 3.73582 15.8659 3.73568H4.08775L3.718 2.44368C3.59125 1.99994 3.32348 1.60952 2.95518 1.33145C2.58688 1.05337 2.13807 0.902747 1.67658 0.902344H1.32808ZM5.96625 10.3048L4.49292 5.15234H15.8645L13.7763 10.3742C13.7237 10.5055 13.633 10.618 13.5158 10.6973C13.3987 10.7766 13.2605 10.819 13.119 10.819H6.64625C6.49244 10.8187 6.3429 10.7684 6.22022 10.6756C6.09754 10.5829 6.00839 10.4527 5.96625 10.3048Z" fill="#363A45"/>
<path d="M6.99475 17.9023C7.27381 17.9023 7.55014 17.8474 7.80795 17.7406C8.06577 17.6338 8.30003 17.4773 8.49735 17.2799C8.69468 17.0826 8.8512 16.8484 8.95799 16.5905C9.06479 16.3327 9.11975 16.0564 9.11975 15.7773C9.11975 15.4983 9.06479 15.222 8.95799 14.9641C8.8512 14.7063 8.69468 14.4721 8.49735 14.2747C8.30003 14.0774 8.06577 13.9209 7.80795 13.8141C7.55014 13.7073 7.27381 13.6523 6.99475 13.6523C6.43117 13.6523 5.89066 13.8762 5.49215 14.2747C5.09363 14.6733 4.86975 15.2138 4.86975 15.7773C4.86975 16.3409 5.09363 16.8814 5.49215 17.2799C5.89066 17.6785 6.43117 17.9023 6.99475 17.9023ZM6.99475 16.4857C6.80689 16.4857 6.62672 16.411 6.49388 16.2782C6.36105 16.1454 6.28642 15.9652 6.28642 15.7773C6.28642 15.5895 6.36105 15.4093 6.49388 15.2765C6.62672 15.1436 6.80689 15.069 6.99475 15.069C7.18261 15.069 7.36278 15.1436 7.49562 15.2765C7.62846 15.4093 7.70308 15.5895 7.70308 15.7773C7.70308 15.9652 7.62846 16.1454 7.49562 16.2782C7.36278 16.411 7.18261 16.4857 6.99475 16.4857Z" fill="#363A45"/>
<path d="M12.6614 17.9023C12.9405 17.9023 13.2168 17.8474 13.4746 17.7406C13.7325 17.6338 13.9667 17.4773 14.164 17.2799C14.3614 17.0826 14.5179 16.8484 14.6247 16.5905C14.7315 16.3327 14.7864 16.0564 14.7864 15.7773C14.7864 15.4983 14.7315 15.222 14.6247 14.9641C14.5179 14.7063 14.3614 14.4721 14.164 14.2747C13.9667 14.0774 13.7325 13.9209 13.4746 13.8141C13.2168 13.7073 12.9405 13.6523 12.6614 13.6523C12.0979 13.6523 11.5574 13.8762 11.1588 14.2747C10.7603 14.6733 10.5364 15.2138 10.5364 15.7773C10.5364 16.3409 10.7603 16.8814 11.1588 17.2799C11.5574 17.6785 12.0979 17.9023 12.6614 17.9023ZM12.6614 16.4857C12.4736 16.4857 12.2934 16.411 12.1606 16.2782C12.0277 16.1454 11.9531 15.9652 11.9531 15.7773C11.9531 15.5895 12.0277 15.4093 12.1606 15.2765C12.2934 15.1436 12.4736 15.069 12.6614 15.069C12.8493 15.069 13.0295 15.1436 13.1623 15.2765C13.2951 15.4093 13.3698 15.5895 13.3698 15.7773C13.3698 15.9652 13.2951 16.1454 13.1623 16.2782C13.0295 16.411 12.8493 16.4857 12.6614 16.4857Z" fill="#363A45"/>
</svg>
