<svg width="18" height="19" viewBox="0 0 18 19" fill="none" xmlns="http://www.w3.org/2000/svg">
<path d="M3.46544 9.04572C3.46544 5.35007 4.20457 0.915283 9.37848 0.915283C14.5524 0.915283 15.2915 5.35007 15.2915 9.04572C15.2915 12.7414 17.5089 14.9588 17.5089 14.9588H9.37848H1.24805C1.24805 14.9588 3.46544 12.7414 3.46544 9.04572ZM12.335 14.9588C12.335 14.9588 12.335 17.9153 9.37848 17.9153C6.42196 17.9153 6.42196 14.9588 6.42196 14.9588H9.37848H12.335Z" fill="white"/>
<path d="M9.37848 14.9588H17.5089C17.5089 14.9588 15.2915 12.7414 15.2915 9.04572C15.2915 5.35007 14.5524 0.915283 9.37848 0.915283C4.20457 0.915283 3.46544 5.35007 3.46544 9.04572C3.46544 12.7414 1.24805 14.9588 1.24805 14.9588H9.37848ZM9.37848 14.9588H6.42196C6.42196 14.9588 6.42196 17.9153 9.37848 17.9153C12.335 17.9153 12.335 14.9588 12.335 14.9588H9.37848Z" stroke="#00C65E" stroke-width="0.8" stroke-linecap="round" stroke-linejoin="round"/>
</svg>
