<svg width="20" height="20" viewBox="0 0 20 20" fill="none" xmlns="http://www.w3.org/2000/svg">
<path d="M14.746 0.554932H5.45215C2.89598 0.554932 0.797852 2.65306 0.797852 5.224V14.5178C0.797852 17.074 2.89598 19.1721 5.45215 19.1721H14.746C17.3169 19.1721 19.415 17.074 19.415 14.503V5.224C19.415 2.65306 17.3169 0.554932 14.746 0.554932ZM12.6035 9.86352H10.8452V15.626H8.62889V9.86352H7.44684V7.49943H8.48113V6.4947C8.48113 5.54906 8.95395 4.05673 10.9486 4.05673H12.766V6.02188H11.4806C11.2737 6.02188 10.993 6.15486 10.993 6.6129V7.49943H12.8104L12.6035 9.86352Z" fill="#00C65E"/>
</svg>
