<svg width="26" height="18" viewBox="0 0 26 18" fill="none" xmlns="http://www.w3.org/2000/svg">
<path d="M9.13062 6.59738L9.48026 6.61322L9.48027 6.61312L9.48029 6.61273L9.48036 6.61116L9.48064 6.60498L9.48173 6.58081L9.48591 6.48841L9.50097 6.15278C9.51354 5.87168 9.53054 5.48876 9.54826 5.08149C9.58364 4.26829 9.62208 3.35402 9.63368 2.96203C9.64514 2.57522 9.67955 2.11608 9.79412 1.76748C9.85118 1.59383 9.91875 1.47785 9.98682 1.41087C10.0439 1.35469 10.1062 1.32617 10.2026 1.33162C10.2092 1.33199 10.2158 1.33218 10.2224 1.33218C10.3032 1.33218 10.3586 1.34884 10.4034 1.37731C10.4498 1.40676 10.5114 1.46582 10.5757 1.59336C10.711 1.86192 10.8226 2.36178 10.8564 3.24952C10.8905 4.14666 10.9196 4.9864 10.9403 5.60189C10.9506 5.90961 10.9588 6.16125 10.9644 6.33593L10.9708 6.53761L10.9724 6.59027L10.9728 6.6037L10.9729 6.60708L10.973 6.60792L10.973 6.60813L10.973 6.60818L11.3228 6.59738L10.973 6.6082C10.9788 6.79686 11.1332 6.94692 11.3219 6.94738C11.5107 6.94785 11.6658 6.79855 11.6726 6.60992L11.7524 4.38108C11.7862 3.6667 11.9143 3.34134 12.0259 3.19674C12.1131 3.08383 12.2121 3.05265 12.3758 3.05266C12.4424 3.05266 12.4809 3.06452 12.5107 3.08306C12.5413 3.10216 12.5952 3.14887 12.6554 3.27478C12.7832 3.54213 12.8958 4.07298 12.9195 5.09099L12.9025 11.2239C12.9002 11.2749 12.8979 11.3254 12.8956 11.3753C12.8635 12.0789 12.8361 12.6782 12.7692 13.2009C12.6976 13.7606 12.5836 14.2033 12.3883 14.5636C12.3851 14.5695 12.3821 14.5754 12.3793 14.5814C12.3268 14.6929 12.2547 14.8524 12.1709 15.0379C11.944 15.5398 11.6311 16.2322 11.3865 16.6808L6.11742 16.6809C5.56987 15.6675 4.99396 14.7251 4.62099 14.163C4.13431 13.3665 3.34859 11.683 2.67562 10.1751C2.34047 9.42404 2.03644 8.72379 1.81616 8.21121C1.70604 7.95496 1.61689 7.74571 1.55531 7.6006L1.48443 7.43319L1.46605 7.38959L1.46139 7.37853L1.46032 7.376L1.46024 7.37579L1.46023 7.37576L1.46012 7.37552L1.46005 7.37534L1.45996 7.3751L1.45994 7.37508L1.45987 7.37492L1.45723 7.36826C1.45459 7.36152 1.45039 7.35057 1.4451 7.33594C1.43447 7.30657 1.41963 7.26294 1.40413 7.2092C1.37258 7.09982 1.34099 6.95778 1.33292 6.81343C1.32469 6.66637 1.34233 6.54186 1.38593 6.44963C1.42389 6.36934 1.48897 6.29543 1.62715 6.24703C1.71329 6.21686 1.80813 6.22293 1.92562 6.27594C2.04843 6.33136 2.1771 6.43077 2.30054 6.55468C2.42186 6.67646 2.52471 6.80825 2.59807 6.91153C2.63437 6.96265 2.66257 7.00552 2.6813 7.03496C2.69065 7.04966 2.69758 7.06092 2.70194 7.0681L2.70651 7.07568L2.70666 7.07593L4.20886 9.7118C4.28748 9.84975 4.4491 9.91749 4.60258 9.87683C4.75607 9.83616 4.86294 9.69728 4.86294 9.5385L4.86294 4.02622C4.86294 3.35237 4.93225 2.86419 5.04302 2.55532C5.15248 2.25014 5.25708 2.22359 5.28586 2.22103C5.37609 2.2228 5.45202 2.25906 5.536 2.38637C5.63244 2.53259 5.71499 2.76906 5.78114 3.10388L6.2672 6.64498C6.29196 6.82539 6.45094 6.95667 6.63278 6.94688C6.81462 6.93708 6.95857 6.78948 6.9638 6.60745L6.61395 6.59738L6.9638 6.60743L6.96381 6.60735L6.96382 6.60701L6.96386 6.60561L6.96402 6.59998L6.96468 6.57772L6.9673 6.49166C6.96961 6.41679 6.97306 6.30819 6.97757 6.17352C6.98661 5.90414 6.99993 5.53059 7.01706 5.1139C7.0514 4.27836 7.10078 3.27689 7.16113 2.5929C7.22289 1.89299 7.29519 1.36335 7.43449 1.01123C7.5021 0.840342 7.57541 0.738774 7.64662 0.680211C7.71084 0.627391 7.79366 0.592337 7.9239 0.592337C8.0684 0.592337 8.15467 0.626076 8.21319 0.667817C8.27466 0.711657 8.33601 0.786256 8.39217 0.916802C8.51173 1.1947 8.56614 1.6196 8.61186 2.20617C8.65605 2.77299 8.6983 3.86925 8.72959 4.83172C8.74518 5.31124 8.75796 5.75489 8.76685 6.07868C8.7713 6.24056 8.77477 6.37244 8.77713 6.46383L8.77981 6.56921L8.7805 6.59665L8.78067 6.60363L8.78071 6.60538L8.78072 6.60582L8.78073 6.60592L9.13062 6.59738ZM9.13062 6.59738L9.48026 6.61326C9.47171 6.80161 9.3155 6.94933 9.12697 6.94737C8.93844 6.9454 8.78534 6.79444 8.78073 6.60595L9.13062 6.59738Z" fill="white" stroke="#363A45" stroke-width="0.7" stroke-linejoin="round"/>
<path d="M17.8313 6.59751L17.4816 6.61334L17.4816 6.61324L17.4816 6.61285L17.4816 6.61128L17.4813 6.6051L17.4802 6.58093L17.476 6.48853L17.4609 6.1529C17.4484 5.8718 17.4314 5.48888 17.4137 5.08161C17.3783 4.26841 17.3398 3.35414 17.3282 2.96215C17.3168 2.57534 17.2824 2.1162 17.1678 1.7676C17.1107 1.59395 17.0432 1.47798 16.9751 1.41099C16.918 1.35481 16.8557 1.32629 16.7593 1.33174C16.7527 1.33212 16.7461 1.3323 16.7395 1.3323C16.6587 1.3323 16.6034 1.34897 16.5585 1.37744C16.5122 1.40689 16.4505 1.46594 16.3862 1.59348C16.2509 1.86204 16.1393 2.3619 16.1055 3.24964C16.0714 4.14678 16.0423 4.98652 16.0216 5.60201C16.0113 5.90973 16.0032 6.16137 15.9976 6.33605L15.9912 6.53773L15.9895 6.59039L15.9891 6.60382L15.989 6.6072L15.989 6.60804L15.9889 6.60825L15.9889 6.6083L15.6391 6.59751L15.9889 6.60832C15.9831 6.79698 15.8287 6.94704 15.64 6.9475C15.4512 6.94797 15.2961 6.79867 15.2893 6.61004L15.2095 4.3812C15.1757 3.66682 15.0477 3.34146 14.936 3.19686C14.8488 3.08395 14.7499 3.05278 14.5861 3.05278C14.5195 3.05278 14.481 3.06465 14.4513 3.08318C14.4206 3.10228 14.3667 3.149 14.3065 3.2749C14.1787 3.54225 14.0661 4.07311 14.0424 5.09111L14.0594 11.2241C14.0617 11.2751 14.064 11.3255 14.0663 11.3755C14.0984 12.0791 14.1258 12.6783 14.1927 13.201C14.2643 13.7607 14.3783 14.2034 14.5736 14.5638C14.5768 14.5696 14.5798 14.5755 14.5826 14.5815C14.6351 14.693 14.7072 14.8525 14.7911 15.038C15.0179 15.5399 15.3309 16.2323 15.5754 16.681L20.8445 16.681C21.392 15.6676 21.968 14.7252 22.3409 14.1631C22.8276 13.3666 23.6133 11.6832 24.2863 10.1752C24.6214 9.42416 24.9255 8.72391 25.1458 8.21133C25.2559 7.95508 25.345 7.74583 25.4066 7.60072L25.4775 7.43331L25.4959 7.38972L25.5005 7.37865L25.5016 7.37612L25.5017 7.37591L25.5017 7.37588L25.5018 7.37564L25.5019 7.37546L25.502 7.37522L25.502 7.3752L25.502 7.37504L25.5047 7.36838C25.5073 7.36164 25.5115 7.35069 25.5168 7.33606C25.5274 7.30669 25.5423 7.26306 25.5578 7.20932C25.5893 7.09994 25.6209 6.9579 25.629 6.81355C25.6372 6.66649 25.6196 6.54198 25.576 6.44976C25.538 6.36946 25.4729 6.29555 25.3348 6.24715C25.2486 6.21699 25.1538 6.22305 25.0363 6.27607C24.9135 6.33148 24.7848 6.4309 24.6614 6.5548C24.5401 6.67658 24.4372 6.80837 24.3638 6.91166C24.3275 6.96277 24.2993 7.00564 24.2806 7.03509C24.2713 7.04978 24.2643 7.06104 24.26 7.06822L24.2554 7.07581L24.2553 7.07605L22.7531 9.71192C22.6744 9.84987 22.5128 9.91761 22.3593 9.87695C22.2058 9.83628 22.099 9.6974 22.099 9.53862L22.099 4.02634C22.099 3.3525 22.0297 2.86432 21.9189 2.55544C21.8094 2.25026 21.7048 2.22372 21.6761 2.22116C21.5858 2.22292 21.5099 2.25918 21.4259 2.3865C21.3295 2.53271 21.2469 2.76918 21.1808 3.10401L20.6947 6.6451C20.6699 6.82552 20.511 6.9568 20.3291 6.947C20.1473 6.9372 20.0033 6.7896 19.9981 6.60757L20.348 6.59751L19.9981 6.60755L19.9981 6.60747L19.9981 6.60713L19.9981 6.60573L19.9979 6.60011L19.9972 6.57784L19.9946 6.49178C19.9923 6.41691 19.9889 6.30832 19.9843 6.17364C19.9753 5.90426 19.962 5.53071 19.9449 5.11402C19.9105 4.27849 19.8611 3.27701 19.8008 2.59302C19.739 1.89312 19.6667 1.36347 19.5274 1.01135C19.4598 0.840464 19.3865 0.738896 19.3153 0.680333C19.2511 0.627513 19.1683 0.592459 19.038 0.592459C18.8935 0.592459 18.8072 0.626198 18.7487 0.667939C18.6873 0.711779 18.6259 0.786378 18.5697 0.916924C18.4502 1.19482 18.3958 1.61972 18.3501 2.20629C18.3059 2.77311 18.2636 3.86937 18.2323 4.83184C18.2167 5.31137 18.2039 5.75501 18.1951 6.0788C18.1906 6.24068 18.1871 6.37256 18.1848 6.46395L18.1821 6.56933L18.1814 6.59678L18.1812 6.60375L18.1812 6.6055L18.1812 6.60594L18.1812 6.60604L17.8313 6.59751ZM17.8313 6.59751L17.4817 6.61338C17.4902 6.80173 17.6464 6.94946 17.8349 6.94749C18.0235 6.94552 18.1766 6.79456 18.1812 6.60607L17.8313 6.59751Z" fill="white" stroke="#363A45" stroke-width="0.7" stroke-linejoin="round"/>
<path d="M13.5306 15.158C13.3667 15.2559 13.231 15.3359 13.1319 15.3939C13.0292 15.3302 12.8866 15.2412 12.7141 15.1324C12.3464 14.9003 11.8436 14.5782 11.3026 14.2177C10.2097 13.4895 8.99666 12.6279 8.4064 12.0366C8.39876 12.0289 8.39077 12.0217 8.38245 12.0147C7.98311 11.6828 7.65918 11.272 7.43141 10.8084C7.20488 10.3474 7.0784 9.84434 7.06006 9.33102C7.07254 8.66095 7.29081 8.00846 7.6865 7.45953C8.08384 6.90829 8.64114 6.48777 9.28434 6.25367C9.92753 6.01957 10.6261 5.98298 11.2873 6.1484C11.9486 6.3138 12.5415 6.67342 12.9875 7.1795C13.0536 7.25446 13.1493 7.29791 13.2503 7.29885C13.3513 7.29978 13.448 7.25811 13.5159 7.18438C13.9769 6.68363 14.5806 6.33158 15.2467 6.17472C15.9128 6.01787 16.6098 6.06362 17.2454 6.30556C17.881 6.54749 18.4253 6.97426 18.8064 7.52935C19.1856 8.08168 19.3855 8.73531 19.3797 9.40457C19.3418 9.91735 19.1985 10.4181 18.9583 10.8765C18.7166 11.3379 18.3818 11.7464 17.9747 12.077C17.9677 12.0827 17.9609 12.0886 17.9544 12.0948C17.2531 12.7592 16.0118 13.6069 14.9243 14.2991C14.3848 14.6425 13.8903 14.9431 13.5306 15.158Z" fill="#00C65E" stroke="white" stroke-width="0.7" stroke-linejoin="round"/>
</svg>
