<svg width="18" height="18" viewBox="0 0 18 18" fill="none" xmlns="http://www.w3.org/2000/svg">
<circle cx="9" cy="9" r="8.11678" fill="white" stroke="white" stroke-width="1.76645"/>
<path fill-rule="evenodd" clip-rule="evenodd" d="M8.99989 4.39746C8.68923 4.39746 8.43739 4.6493 8.43739 4.95996V8.43769H4.95914C4.64848 8.43769 4.39664 8.68953 4.39664 9.00019C4.39664 9.31085 4.64848 9.56269 4.95914 9.56269H8.43739V13.0407C8.43739 13.3513 8.68923 13.6032 8.99989 13.6032C9.31055 13.6032 9.56239 13.3513 9.56239 13.0407V9.56269H13.0399C13.3505 9.56269 13.6024 9.31085 13.6024 9.00019C13.6024 8.68953 13.3505 8.43769 13.0399 8.43769H9.56239V4.95996C9.56239 4.6493 9.31055 4.39746 8.99989 4.39746Z" fill="#00C65E"/>
</svg>
