<svg width="20" height="20" viewBox="0 0 20 20" fill="none" xmlns="http://www.w3.org/2000/svg">
<path d="M11.9546 8.66707C11.5852 8.14993 10.9794 7.81009 10.2998 7.81009C9.62009 7.81009 9.01429 8.14993 8.64491 8.66707C8.4085 9.00691 8.26074 9.42062 8.26074 9.86389C8.26074 10.9868 9.17683 11.9029 10.2998 11.9029C11.4227 11.9029 12.3388 10.9868 12.3388 9.86389C12.3388 9.42062 12.191 9.00691 11.9546 8.66707Z" fill="#00C65E"/>
<path d="M13.2408 8.68167C13.3885 8.97718 13.4772 9.45 13.4772 9.86371C13.4772 11.6072 12.0587 13.0405 10.3004 13.0405C8.54215 13.0405 7.1237 11.622 7.1237 9.86371C7.1237 9.43522 7.21235 8.97718 7.36011 8.68167H5.57227V13.4246C5.57227 14.0452 6.11896 14.5919 6.73953 14.5919H13.8613C14.4819 14.5919 15.0286 14.0452 15.0286 13.4246V8.68167H13.2408Z" fill="#00C65E"/>
<path d="M14.4962 5.4013H12.7822V7.36644H14.7326V5.65248V5.38652L14.4962 5.4013Z" fill="#00C65E"/>
<path d="M14.9393 0.554932H5.66028C3.08934 0.554932 0.991211 2.65306 0.991211 5.224V14.5178C0.991211 17.074 3.08934 19.1721 5.66028 19.1721H14.9541C17.525 19.1721 19.6232 17.074 19.6232 14.503V5.224C19.6084 2.65306 17.5103 0.554932 14.9393 0.554932ZM16.0623 8.6667V13.4244C16.0623 14.6656 15.1018 15.626 13.8607 15.626H6.7389C5.49775 15.626 4.53734 14.6656 4.53734 13.4244V8.6667V6.30262C4.53734 5.06147 5.49775 4.10106 6.7389 4.10106H13.8607C15.1018 4.10106 16.0623 5.06147 16.0623 6.30262V8.6667Z" fill="#00C65E"/>
</svg>
