<svg width="20" height="18" viewBox="0 0 20 18" fill="none" xmlns="http://www.w3.org/2000/svg">
<path d="M9.31285 3.84004L9.93764 4.78384L10.5633 3.84058C12.0282 1.6318 14.0399 1.22134 15.6544 1.82783C17.3107 2.45006 18.6786 4.18983 18.6786 6.57403C18.6786 7.35105 18.2498 8.3501 17.4472 9.4973C16.6608 10.6211 15.5898 11.784 14.4708 12.8682C13.3551 13.9492 12.2105 14.9342 11.2883 15.7042C10.957 15.9808 10.657 16.2276 10.3959 16.4423C10.2929 16.5271 10.1959 16.6068 10.1054 16.6815C10.046 16.7305 9.98816 16.7783 9.9326 16.8245C9.87158 16.7755 9.80806 16.7248 9.7429 16.673C9.61134 16.5683 9.46845 16.4554 9.3141 16.3335C9.07347 16.1434 8.80497 15.9313 8.50801 15.694C7.54332 14.9232 6.34256 13.9375 5.17068 12.8558C3.99518 11.7707 2.86888 10.6071 2.0418 9.48283C1.19583 8.33286 0.75 7.3392 0.75 6.57403C0.75 4.19864 2.20226 2.44696 3.98619 1.81764C5.73941 1.19916 7.86172 1.64802 9.31285 3.84004Z" fill="#00C65E" stroke="#00C65E" stroke-width="1.5"/>
</svg>
