<svg width="20" height="18" viewBox="0 0 20 18" fill="none" xmlns="http://www.w3.org/2000/svg">
<path d="M10.1145 3.74865L10.4477 4.25201L10.7813 3.74894C12.3309 1.41254 14.5111 0.934746 16.2872 1.60199C18.0858 2.27764 19.5383 4.15197 19.5383 6.67583C19.5383 7.56403 19.0569 8.63747 18.2437 9.79975C17.4392 10.9496 16.3504 12.13 15.2241 13.2214C14.0995 14.311 12.9475 15.3023 12.0224 16.0747C11.6901 16.3521 11.3884 16.6002 11.1271 16.8152C11.0243 16.8997 10.9277 16.9792 10.838 17.0532C10.6903 17.1751 10.5574 17.2854 10.4458 17.3805C10.329 17.2837 10.1895 17.1717 10.0348 17.0487C9.90534 16.9457 9.76313 16.8334 9.60902 16.7116C9.36729 16.5206 9.09628 16.3065 8.79929 16.0692C7.83208 15.2964 6.62389 14.3048 5.44304 13.2148C4.26027 12.1229 3.11568 10.9421 2.26964 9.79204C1.41352 8.62828 0.909766 7.5577 0.909766 6.67583C0.909766 4.1471 2.46034 2.26642 4.37951 1.58939C6.28231 0.918132 8.57367 1.42119 10.1145 3.74865Z" stroke="#00C65E" stroke-width="0.8"/>
</svg>
