<svg width="15" height="16" viewBox="0 0 15 16" fill="none" xmlns="http://www.w3.org/2000/svg">
<path fill-rule="evenodd" clip-rule="evenodd" d="M0.765895 1.37812C0.765895 0.660155 1.34792 0.078125 2.06589 0.078125H13.4659C14.1839 0.078125 14.7659 0.660155 14.7659 1.37812C14.7659 2.09609 14.1839 2.67812 13.4659 2.67812H2.06589C1.34792 2.67812 0.765895 2.09609 0.765895 1.37812ZM0.765625 7.57539C0.765625 6.85742 1.34765 6.27539 2.06562 6.27539H13.4656C14.1836 6.27539 14.7656 6.85742 14.7656 7.57539C14.7656 8.29336 14.1836 8.87539 13.4656 8.87539H2.06562C1.34765 8.87539 0.765625 8.29336 0.765625 7.57539ZM2.06562 12.4727C1.34765 12.4727 0.765625 13.0547 0.765625 13.7727C0.765625 14.4906 1.34765 15.0727 2.06562 15.0727H7.46563C8.1836 15.0727 8.76562 14.4906 8.76562 13.7727C8.76562 13.0547 8.1836 12.4727 7.46563 12.4727H2.06562Z" fill="#363A45"/>
</svg>
