<svg width="15" height="18" viewBox="0 0 15 18" fill="none" xmlns="http://www.w3.org/2000/svg">
<rect x="1.33096" y="0.592432" width="13.3" height="16.3" rx="0.434713" fill="white" stroke="#00C65E" stroke-width="0.7"/>
<path d="M9.65037 15.1597V14.4025H9.11328V13.857H9.65037V13.3308H9.11328V12.6506H9.65037V10.5779H11.0287C11.6111 10.5779 12.0382 10.6955 12.3099 10.9308C12.586 11.1618 12.7241 11.4912 12.7241 11.9191C12.7241 12.1843 12.6637 12.4239 12.5429 12.6378C12.4221 12.8517 12.2301 13.0207 11.967 13.1447C11.7081 13.2688 11.3673 13.3308 10.9446 13.3308H10.4787V13.857H11.5011V14.4025H10.4787V15.1597H9.65037ZM10.854 12.6506C11.1689 12.6506 11.4191 12.5971 11.6046 12.4902C11.7901 12.3832 11.8829 12.2014 11.8829 11.9447C11.8829 11.7137 11.8074 11.5426 11.6564 11.4314C11.5097 11.3158 11.2832 11.2581 10.9769 11.2581H10.4787V12.6506H10.854Z" fill="#00C65E"/>
<rect x="3.53955" y="2.94458" width="8.8824" height="1.06952" rx="0.534759" fill="#00C65E"/>
<rect x="3.53955" y="5.57593" width="8.8824" height="1.06952" rx="0.534759" fill="#00C65E"/>
<rect x="3.53955" y="8.20728" width="6.70927" height="1.06952" rx="0.534759" fill="#00C65E"/>
<rect x="3.53955" y="10.8391" width="4.7258" height="1.06952" rx="0.534759" fill="#00C65E"/>
<rect x="3.53955" y="13.47" width="2.52137" height="1.06952" rx="0.534759" fill="#00C65E"/>
</svg>
