<svg width="73" height="31" viewBox="0 0 73 31" fill="none" xmlns="http://www.w3.org/2000/svg">
<path d="M0.980469 8.99581H8.08121V25.1974H11.1336C17.9826 25.1974 21.4058 21.8697 21.4031 15.2142C21.4031 8.69475 18.2249 5.4362 11.8685 5.43858H10.5863V0.164307L11.5031 0.164307C16.9705 0.164307 21.2184 1.47632 24.2466 4.10033C27.2749 6.72435 28.7877 10.3777 28.785 15.0604C28.785 20.046 27.2173 23.8628 24.082 26.5106C20.9466 29.1585 16.4082 30.4908 10.4669 30.5075H0.980469V8.99581Z" fill="#00C65E"/>
<path d="M8.08522 0.164307H0.980469V6.49416H8.08522V0.164307Z" fill="#00C65E"/>
<path d="M35.5771 12.512H33.1426V21.3362H35.5771V12.512ZM35.7529 9.99829C35.7529 9.59399 35.6211 9.26001 35.3662 9.01392C35.1025 8.76782 34.751 8.64478 34.3115 8.64478C33.9072 8.64478 33.582 8.76782 33.3359 9.01392C33.0898 9.26001 32.9668 9.59399 32.9668 9.99829C32.9668 10.4026 33.0811 10.7278 33.3271 10.9739C33.5732 11.22 33.8984 11.343 34.3115 11.343C34.751 11.343 35.1025 11.22 35.3662 10.9739C35.6211 10.7278 35.7529 10.4026 35.7529 9.99829ZM40.5342 8.73267H38.0996V21.3362H40.5342V8.73267ZM45.0342 21.8723C44.7441 22.5403 44.2344 22.8655 43.5049 22.8655C43.1445 22.8655 42.8457 22.8127 42.6084 22.6897V24.843L42.7842 24.9045C42.9072 24.9573 43.0918 25.0012 43.3555 25.0452C43.6104 25.0979 43.874 25.1155 44.1377 25.1155C45.6143 25.1155 46.748 24.0344 47.5566 21.8723L51.0635 12.512H48.5498L46.4756 18.3655L44.4102 12.512H41.8877L45.3066 21.2483L45.0342 21.8723ZM50.958 20.1672C50.958 20.5276 51.0986 20.844 51.3799 21.1077C51.6611 21.3801 51.9951 21.512 52.3994 21.512C52.7949 21.512 53.1377 21.3801 53.4189 21.1077C53.7002 20.844 53.8408 20.5276 53.8408 20.1672C53.8408 19.8069 53.7002 19.4905 53.4189 19.218C53.1377 18.9543 52.7949 18.8137 52.3994 18.8137C51.9951 18.8137 51.6611 18.9543 51.3799 19.218C51.0986 19.4905 50.958 19.8069 50.958 20.1672ZM61.0391 12.4241H60.6787C60.1953 12.4241 59.7383 12.5383 59.2988 12.7493C58.8594 12.969 58.5781 13.1448 58.4463 13.2766C58.3232 13.4084 58.2178 13.5139 58.1475 13.593V12.512H55.7217V21.3362H58.1475V17.1086C58.1475 16.3528 58.3408 15.7727 58.71 15.3684C59.0791 14.9641 59.5889 14.762 60.2217 14.762C60.582 14.7708 60.8545 14.8059 61.0303 14.8674L61.0391 12.4241ZM68.334 21.3362H70.7598V12.512H68.334V17.1965C68.334 17.8645 68.167 18.3743 67.8418 18.7258C67.5166 19.0862 67.0771 19.262 66.5322 19.262C66.04 19.262 65.627 19.1038 65.3018 18.7786C64.9766 18.4622 64.8184 18.0491 64.8184 17.5569V12.512H62.3926V17.7942C62.3926 18.9192 62.709 19.8245 63.3418 20.5012C63.9746 21.178 64.8008 21.512 65.8115 21.512C66.2861 21.512 66.7432 21.4153 67.1826 21.2219C67.6221 21.0286 67.9033 20.8704 68.0352 20.7473C68.1582 20.6243 68.2637 20.5276 68.334 20.4397V21.3362Z" fill="#00C65E"/>
</svg>
