<svg width="18" height="18" viewBox="0 0 18 18" fill="none" xmlns="http://www.w3.org/2000/svg">
<path d="M12.3407 15.0628C12.5749 15.4258 12.9497 15.8388 13.2698 16.1644C13.4748 16.3729 13.3291 16.7424 13.0367 16.7424H5.92698C5.63458 16.7424 5.48891 16.3729 5.6939 16.1644C6.01398 15.8388 6.38883 15.4258 6.62302 15.0628C7.09839 14.3258 7.25999 13.1711 7.25999 13.1711H11.7037C11.7037 13.1711 11.8653 14.3258 12.3407 15.0628Z" fill="white" stroke="#363A45" stroke-width="0.7"/>
<mask id="path-2-inside-1_4518_27959" fill="white">
<rect x="2.42676" y="2.83813" width="14.1103" height="11.2227" rx="0.636856"/>
</mask>
<rect x="2.42676" y="2.83813" width="14.1103" height="11.2227" rx="0.636856" fill="white" stroke="#363A45" stroke-width="1.4" mask="url(#path-2-inside-1_4518_27959)"/>
<path d="M4.82477 12.4828C3.95691 12.265 3.70068 11.3176 3.70068 10.4998C3.70068 7.53466 4.61263 7.78412 4.58232 6.21156C4.541 4.09903 5.5659 3.90957 5.94336 4.00114C10.2248 5.07793 12.6328 4.31692 12.6328 4.31692C14.2859 3.9443 10.9797 7.37993 12.6328 10.885C13.5475 12.8618 6.26295 12.8428 4.82477 12.4828Z" fill="#00C65E"/>
<mask id="path-4-inside-2_4518_27959" fill="white">
<rect x="2.42676" y="0.242432" width="14.1103" height="3.02122" rx="0.636856"/>
</mask>
<rect x="2.42676" y="0.242432" width="14.1103" height="3.02122" rx="0.636856" fill="white" stroke="#363A45" stroke-width="1.4" mask="url(#path-4-inside-2_4518_27959)"/>
<path d="M2.61738 2.77774C2.65542 2.65897 2.76584 2.57839 2.89056 2.57839H16.0714C16.1961 2.57839 16.3065 2.65897 16.3445 2.77774L17.3814 6.01478C17.4407 6.1999 17.3026 6.38914 17.1082 6.38914H1.85368C1.6593 6.38914 1.5212 6.1999 1.5805 6.01478L2.61738 2.77774Z" fill="white" stroke="#363A45" stroke-width="0.7"/>
<rect x="9.11963" y="2.32495" width="0.722434" height="4.16762" fill="#363A45"/>
<path d="M12.937 2.32495H13.6594L14.3819 6.49257H13.6594L12.937 2.32495Z" fill="#363A45"/>
<path d="M6.02344 2.32495H5.301L4.57857 6.49257H5.301L6.02344 2.32495Z" fill="#363A45"/>
</svg>
