<svg width="18" height="18" viewBox="0 0 18 18" fill="none" xmlns="http://www.w3.org/2000/svg">
<circle cx="9" cy="9" r="9" fill="#00C65E"/>
<path fill-rule="evenodd" clip-rule="evenodd" d="M8.99973 4.39728C8.68907 4.39728 8.43723 4.64912 8.43723 4.95978V8.43751H4.95898C4.64832 8.43751 4.39648 8.68935 4.39648 9.00001C4.39648 9.31067 4.64832 9.56251 4.95898 9.56251H8.43723V13.0405C8.43723 13.3512 8.68907 13.603 8.99973 13.603C9.31039 13.603 9.56223 13.3512 9.56223 13.0405V9.56251H13.0397C13.3504 9.56251 13.6022 9.31067 13.6022 9.00001C13.6022 8.68935 13.3504 8.43751 13.0397 8.43751H9.56223V4.95978C9.56223 4.64912 9.31039 4.39728 8.99973 4.39728Z" fill="white"/>
</svg>
