<svg width="21" height="18" viewBox="0 0 21 18" fill="none" xmlns="http://www.w3.org/2000/svg">
<g clip-path="url(#clip0_4659_3658)">
<circle cx="10.9551" cy="9.31232" r="8" stroke="#00C65E"/>
<path d="M10.2051 10.7537C10.2051 10.9178 10.2227 11.0936 10.2637 11.2928H11.3418V11.1756C11.3418 10.8416 11.418 10.5486 11.582 10.3026C11.7402 10.0565 11.9336 9.85138 12.168 9.68732C12.4023 9.52325 12.6309 9.34747 12.8594 9.15997C13.0879 8.97247 13.2812 8.72638 13.4453 8.40997C13.6035 8.09357 13.6855 7.71857 13.6855 7.27325C13.6855 6.65216 13.4277 6.1131 12.9238 5.66779C12.4141 5.22247 11.7695 4.99396 10.9844 4.99396C10.5566 4.99396 10.1699 5.07013 9.82422 5.21075C9.47266 5.35724 9.20898 5.51544 9.02734 5.68536C8.83984 5.86115 8.68164 6.06036 8.54102 6.28302C8.40039 6.51154 8.3125 6.66974 8.28906 6.75763C8.25977 6.85138 8.23633 6.92169 8.22461 6.97443L9.30273 7.3963L9.34961 7.27325C9.37305 7.19122 9.42578 7.08575 9.50195 6.96857C9.57227 6.85138 9.67188 6.74005 9.78906 6.62286C9.90625 6.50568 10.0703 6.40607 10.2812 6.32404C10.4922 6.242 10.7266 6.19513 10.9844 6.19513C11.3887 6.19513 11.7168 6.31232 11.9746 6.54669C12.2324 6.78107 12.3613 7.06232 12.3613 7.3963C12.3613 7.65997 12.2852 7.90021 12.1387 8.117C11.9922 8.3338 11.8105 8.52716 11.5996 8.69122C11.3887 8.86115 11.1777 9.03107 10.9668 9.20099C10.7559 9.37677 10.5742 9.59357 10.4277 9.8631C10.2754 10.1326 10.2051 10.4256 10.2051 10.7537ZM10.0234 12.8572C10.0234 13.0682 10.0996 13.2498 10.2578 13.4022C10.4102 13.5545 10.5918 13.6307 10.8027 13.6307C11.0078 13.6307 11.1895 13.5545 11.3477 13.4022C11.5 13.2498 11.582 13.0682 11.582 12.8572C11.582 12.6463 11.5 12.4647 11.3477 12.3065C11.1895 12.1541 11.0078 12.0721 10.8027 12.0721C10.5918 12.0721 10.4102 12.1541 10.2578 12.3065C10.0996 12.4647 10.0234 12.6463 10.0234 12.8572Z" fill="#00C65E"/>
</g>
<defs>
<clipPath id="clip0_4659_3658">
<rect width="20" height="17" fill="white" transform="translate(0.955078 0.812317)"/>
</clipPath>
</defs>
</svg>
