<svg width="10" height="10" viewBox="0 0 10 10" fill="none" xmlns="http://www.w3.org/2000/svg">
<mask id="path-1-inside-1_789_5335" fill="white">
<path fill-rule="evenodd" clip-rule="evenodd" d="M7.57672 6.82635C8.23635 5.97594 8.54722 4.90618 8.4461 3.83469C8.34498 2.76321 7.83946 1.7705 7.03238 1.05851C6.2253 0.346517 5.17729 -0.0312608 4.10156 0.00202682C3.02583 0.0353144 2.00319 0.477167 1.24168 1.23769C0.479502 1.99875 0.0362043 3.02179 0.00212128 4.09834C-0.0319618 5.17488 0.345735 6.22392 1.05824 7.03166C1.77075 7.8394 2.76445 8.34506 3.83683 8.4456C4.90921 8.54613 5.97958 8.23398 6.8298 7.57274L6.85255 7.59654L9.09647 9.841C9.14562 9.89014 9.20397 9.92913 9.26818 9.95573C9.3324 9.98233 9.40122 9.99602 9.47073 9.99602C9.54023 9.99602 9.60906 9.98233 9.67327 9.95573C9.73748 9.92913 9.79583 9.89014 9.84498 9.841C9.89413 9.79185 9.93311 9.7335 9.95971 9.66929C9.98631 9.60507 10 9.53625 10 9.46674C10 9.39724 9.98631 9.32841 9.95971 9.2642C9.93311 9.19999 9.89413 9.14164 9.84498 9.09249L7.60052 6.84857C7.5928 6.84094 7.58486 6.83354 7.57672 6.82635ZM6.47856 1.9862C6.77722 2.28004 7.01475 2.6301 7.17745 3.01619C7.34014 3.40229 7.42479 3.81677 7.42649 4.23574C7.4282 4.65471 7.34693 5.06987 7.18739 5.45728C7.02784 5.84469 6.79317 6.19667 6.49691 6.49293C6.20065 6.78919 5.84867 7.02386 5.46126 7.18341C5.07386 7.34295 4.65869 7.42422 4.23972 7.42251C3.82075 7.4208 3.40627 7.33616 3.02017 7.17347C2.63408 7.01077 2.28402 6.77324 1.99018 6.47458C1.40297 5.87773 1.0754 5.07302 1.07881 4.23574C1.08221 3.39846 1.41633 2.59645 2.00838 2.0044C2.60043 1.41235 3.40245 1.07823 4.23972 1.07482C5.077 1.07141 5.88171 1.39899 6.47856 1.9862Z"/>
</mask>
<path fill-rule="evenodd" clip-rule="evenodd" d="M7.57672 6.82635C8.23635 5.97594 8.54722 4.90618 8.4461 3.83469C8.34498 2.76321 7.83946 1.7705 7.03238 1.05851C6.2253 0.346517 5.17729 -0.0312608 4.10156 0.00202682C3.02583 0.0353144 2.00319 0.477167 1.24168 1.23769C0.479502 1.99875 0.0362043 3.02179 0.00212128 4.09834C-0.0319618 5.17488 0.345735 6.22392 1.05824 7.03166C1.77075 7.8394 2.76445 8.34506 3.83683 8.4456C4.90921 8.54613 5.97958 8.23398 6.8298 7.57274L6.85255 7.59654L9.09647 9.841C9.14562 9.89014 9.20397 9.92913 9.26818 9.95573C9.3324 9.98233 9.40122 9.99602 9.47073 9.99602C9.54023 9.99602 9.60906 9.98233 9.67327 9.95573C9.73748 9.92913 9.79583 9.89014 9.84498 9.841C9.89413 9.79185 9.93311 9.7335 9.95971 9.66929C9.98631 9.60507 10 9.53625 10 9.46674C10 9.39724 9.98631 9.32841 9.95971 9.2642C9.93311 9.19999 9.89413 9.14164 9.84498 9.09249L7.60052 6.84857C7.5928 6.84094 7.58486 6.83354 7.57672 6.82635ZM6.47856 1.9862C6.77722 2.28004 7.01475 2.6301 7.17745 3.01619C7.34014 3.40229 7.42479 3.81677 7.42649 4.23574C7.4282 4.65471 7.34693 5.06987 7.18739 5.45728C7.02784 5.84469 6.79317 6.19667 6.49691 6.49293C6.20065 6.78919 5.84867 7.02386 5.46126 7.18341C5.07386 7.34295 4.65869 7.42422 4.23972 7.42251C3.82075 7.4208 3.40627 7.33616 3.02017 7.17347C2.63408 7.01077 2.28402 6.77324 1.99018 6.47458C1.40297 5.87773 1.0754 5.07302 1.07881 4.23574C1.08221 3.39846 1.41633 2.59645 2.00838 2.0044C2.60043 1.41235 3.40245 1.07823 4.23972 1.07482C5.077 1.07141 5.88171 1.39899 6.47856 1.9862Z" fill="#363A45"/>
<path d="M1.24168 1.23769L2.65485 2.65295L2.65498 2.65282L1.24168 1.23769ZM6.8298 7.57274L8.27577 6.191L7.02784 4.88507L5.60198 5.99399L6.8298 7.57274ZM6.85255 7.59654L5.40659 8.97828L5.42219 8.99461L5.43817 9.01059L6.85255 7.59654ZM9.09647 9.841L7.68209 11.255L7.68226 11.2552L9.09647 9.841ZM10 9.46674H12H10ZM9.84498 9.09249L11.2592 7.67828L11.259 7.67811L9.84498 9.09249ZM7.60052 6.84857L9.0146 5.43415L9.00496 5.42465L7.60052 6.84857ZM6.47856 1.9862L7.88121 0.560516V0.560515L6.47856 1.9862ZM1.99018 6.47458L0.564498 7.87723H0.564498L1.99018 6.47458ZM9.15705 8.05214C10.1284 6.79987 10.5862 5.22459 10.4373 3.64678L6.45495 4.02261C6.50828 4.58776 6.34431 5.15201 5.99639 5.60056L9.15705 8.05214ZM10.4373 3.64678C10.2883 2.06896 9.54394 0.607142 8.35548 -0.441297L5.70928 2.55831C6.13497 2.93385 6.40161 3.45746 6.45495 4.02261L10.4373 3.64678ZM8.35548 -0.441297C7.16701 -1.48974 5.62377 -2.04603 4.0397 -1.99702L4.16342 2.00107C4.73082 1.98351 5.28359 2.18277 5.70928 2.55831L8.35548 -0.441297ZM4.0397 -1.99702C2.45564 -1.948 0.949743 -1.29735 -0.171621 -0.177433L2.65498 2.65282C3.05664 2.25168 3.59603 2.01863 4.16342 2.00107L4.0397 -1.99702ZM-0.171496 -0.177559C-1.29388 0.943178 -1.94669 2.44972 -1.99688 4.03505L2.00112 4.16162C2.01909 3.59386 2.25289 3.05432 2.65485 2.65295L-0.171496 -0.177559ZM-1.99688 4.03505C-2.04707 5.62038 -1.49087 7.1652 -0.441623 8.35469L2.55811 5.70863C2.18234 5.28264 1.98314 4.72939 2.00112 4.16162L-1.99688 4.03505ZM-0.441623 8.35469C0.607622 9.54418 2.07095 10.2888 3.65015 10.4369L4.02351 6.45433C3.45794 6.40131 2.93388 6.13463 2.55811 5.70863L-0.441623 8.35469ZM3.65015 10.4369C5.22935 10.5849 6.80558 10.1252 8.05763 9.15148L5.60198 5.99399C5.15358 6.34272 4.58907 6.50735 4.02351 6.45433L3.65015 10.4369ZM5.38384 8.95447L5.40659 8.97828L8.29851 6.21481L8.27577 6.191L5.38384 8.95447ZM5.43817 9.01059L7.68209 11.255L10.5109 8.42695L8.26693 6.1825L5.43817 9.01059ZM7.68226 11.2552C7.91712 11.4901 8.19595 11.6764 8.50282 11.8035L10.0336 8.10797C10.212 8.18188 10.3741 8.29022 10.5107 8.42678L7.68226 11.2552ZM8.50282 11.8035C8.80969 11.9306 9.13858 11.996 9.47073 11.996V7.99602C9.66386 7.99602 9.85511 8.03406 10.0336 8.10797L8.50282 11.8035ZM9.47073 11.996C9.80287 11.996 10.1318 11.9306 10.4386 11.8035L8.9079 8.10797C9.08635 8.03406 9.27759 7.99602 9.47073 7.99602V11.996ZM10.4386 11.8035C10.7455 11.6764 11.0243 11.4901 11.2592 11.2552L8.43077 8.42678C8.56733 8.29022 8.72946 8.18188 8.9079 8.10797L10.4386 11.8035ZM11.2592 11.2552C11.4941 11.0203 11.6804 10.7415 11.8075 10.4347L8.11195 8.90392C8.18586 8.72549 8.29419 8.56336 8.43077 8.42678L11.2592 11.2552ZM11.8075 10.4347C11.9346 10.1278 12 9.79891 12 9.46674H8C8 9.27359 8.03805 9.08235 8.11195 8.90392L11.8075 10.4347ZM12 9.46674C12 9.13458 11.9346 8.80569 11.8075 8.49883L8.11195 10.0296C8.03805 9.85114 8 9.6599 8 9.46674H12ZM11.8075 8.49883C11.6804 8.19198 11.4941 7.91315 11.2592 7.67828L8.43077 10.5067C8.29419 10.3701 8.18586 10.208 8.11195 10.0296L11.8075 8.49883ZM11.259 7.67811L9.01457 5.43419L6.18648 8.26295L8.43093 10.5069L11.259 7.67811ZM9.00496 5.42465C8.97108 5.39122 8.93625 5.35871 8.90052 5.32716L6.25293 8.32554C6.23347 8.30836 6.21452 8.29067 6.19608 8.27249L9.00496 5.42465ZM5.07591 3.41188C5.18637 3.52056 5.27422 3.65003 5.3344 3.79283L9.0205 2.23955C8.75528 1.61016 8.36807 1.03951 7.88121 0.560516L5.07591 3.41188ZM5.3344 3.79283C5.39457 3.93563 5.42588 4.08893 5.42651 4.24389L9.42647 4.2276C9.42369 3.54461 9.28571 2.86894 9.0205 2.23955L5.3344 3.79283ZM5.42651 4.24389C5.42714 4.39884 5.39708 4.55239 5.33807 4.69568L9.0367 6.21888C9.29678 5.58736 9.42926 4.91058 9.42647 4.2276L5.42651 4.24389ZM5.33807 4.69568C5.27907 4.83896 5.19227 4.96914 5.0827 5.07872L7.91113 7.90714C8.39407 7.4242 8.77662 6.85041 9.0367 6.21888L5.33807 4.69568ZM5.0827 5.07872C4.97313 5.18829 4.84294 5.27508 4.69966 5.33409L6.22287 9.03272C6.8544 8.77264 7.42818 8.39009 7.91113 7.90714L5.0827 5.07872ZM4.69966 5.33409C4.55638 5.3931 4.40283 5.42316 4.24787 5.42253L4.23158 9.42249C4.91456 9.42527 5.59134 9.2928 6.22287 9.03272L4.69966 5.33409ZM4.24787 5.42253C4.09291 5.4219 3.93961 5.39059 3.79681 5.33042L2.24354 9.01652C2.87292 9.28173 3.5486 9.41971 4.23158 9.42249L4.24787 5.42253ZM3.79681 5.33042C3.65401 5.27024 3.52454 5.18239 3.41586 5.07193L0.564498 7.87723C1.04349 8.36409 1.61414 8.7513 2.24354 9.01652L3.79681 5.33042ZM3.41586 5.07193C3.19868 4.85118 3.07753 4.55356 3.07879 4.24389L-0.921178 4.2276C-0.926736 5.59248 -0.392738 6.90427 0.564498 7.87723L3.41586 5.07193ZM3.07879 4.24389C3.08005 3.93422 3.20363 3.63759 3.4226 3.41861L0.59417 0.590188C-0.370958 1.55532 -0.915621 2.86271 -0.921178 4.2276L3.07879 4.24389ZM3.4226 3.41861C3.64157 3.19964 3.9382 3.07607 4.24787 3.07481L4.23158 -0.925161C2.8667 -0.919603 1.5593 -0.37494 0.59417 0.590188L3.4226 3.41861ZM4.24787 3.07481C4.55754 3.07354 4.85516 3.1947 5.07591 3.41188L7.88121 0.560515C6.90826 -0.39672 5.59647 -0.930718 4.23158 -0.925161L4.24787 3.07481Z" fill="#363A45" mask="url(#path-1-inside-1_789_5335)"/>
</svg>
