<svg width="21" height="18" viewBox="0 0 21 18" fill="none" xmlns="http://www.w3.org/2000/svg">
<g clip-path="url(#clip0_4659_3646)">
<mask id="path-1-inside-1_4659_3646" fill="white">
<path fill-rule="evenodd" clip-rule="evenodd" d="M10.9553 0.812317C10.116 0.812317 9.43557 1.49273 9.43557 2.33207V2.90997C9.43557 3.16947 9.25851 3.39324 9.01228 3.47515C8.7327 3.56816 8.46203 3.68069 8.2019 3.81112C7.96991 3.92745 7.68644 3.89442 7.50293 3.71091L7.09386 3.30184C6.50036 2.70834 5.53811 2.70834 4.94461 3.30184C4.35111 3.89534 4.35111 4.85759 4.94461 5.45109L5.35364 5.86012C5.53716 6.04363 5.57019 6.32711 5.45385 6.5591C5.32344 6.81917 5.21093 7.08976 5.11793 7.36926C5.03601 7.61548 4.81224 7.79252 4.55276 7.79252H3.97483C3.13549 7.79252 2.45508 8.47293 2.45508 9.31226C2.45508 10.1516 3.13549 10.832 3.97483 10.832H4.55272C4.81221 10.832 5.03598 11.0091 5.1179 11.2553C5.21088 11.5348 5.32337 11.8053 5.45376 12.0654C5.57009 12.2974 5.53706 12.5808 5.35355 12.7643L4.94439 13.1735C4.35089 13.767 4.35089 14.7292 4.94439 15.3227C5.53788 15.9162 6.50014 15.9162 7.09363 15.3227L7.50274 14.9136C7.68626 14.7301 7.96973 14.6971 8.20173 14.8134C8.46191 14.9439 8.73263 15.0565 9.01228 15.1495C9.25851 15.2314 9.43557 15.4552 9.43557 15.7147V16.2926C9.43557 17.1319 10.116 17.8123 10.9553 17.8123C11.7946 17.8123 12.4751 17.1319 12.4751 16.2926V15.7144C12.4751 15.455 12.6521 15.2312 12.8983 15.1493C13.1777 15.0563 13.4482 14.9438 13.7082 14.8134C13.9402 14.6971 14.2237 14.7301 14.4072 14.9136L14.8162 15.3227C15.4097 15.9162 16.3719 15.9162 16.9654 15.3227C17.5589 14.7292 17.5589 13.7669 16.9654 13.1734L16.5564 12.7644C16.3729 12.5809 16.3398 12.2974 16.4562 12.0654C16.5866 11.8053 16.6991 11.5348 16.7921 11.2553C16.874 11.0091 17.0977 10.832 17.3572 10.832H17.9353C18.7747 10.832 19.4551 10.1516 19.4551 9.31226C19.4551 8.47293 18.7747 7.79252 17.9353 7.79252H17.3572C17.0977 7.79252 16.8739 7.61548 16.792 7.36926C16.699 7.08975 16.5865 6.81914 16.4561 6.55907C16.3397 6.32707 16.3728 6.0436 16.5563 5.86008L16.9652 5.45117C17.5587 4.85767 17.5587 3.89542 16.9652 3.30192C16.3717 2.70842 15.4095 2.70842 14.816 3.30192L14.407 3.71089C14.2235 3.8944 13.94 3.92743 13.708 3.81111C13.4481 3.68077 13.1776 3.56832 12.8983 3.47536C12.6521 3.39343 12.4751 3.16967 12.4751 2.9102V2.33206C12.4751 1.49273 11.7946 0.812317 10.9553 0.812317ZM10.956 11.4851C12.156 11.4851 13.1287 10.5123 13.1287 9.31232C13.1287 8.11233 12.156 7.13955 10.956 7.13955C9.75599 7.13955 8.7832 8.11233 8.7832 9.31232C8.7832 10.5123 9.75599 11.4851 10.956 11.4851Z"/>
</mask>
<path d="M7.09386 3.30184L7.65954 2.73615V2.73615L7.09386 3.30184ZM4.94461 3.30184L4.37892 2.73615L4.94461 3.30184ZM4.94461 5.45109L5.5103 4.8854L4.94461 5.45109ZM4.94439 13.1735L4.3787 12.6078L4.94439 13.1735ZM4.94439 15.3227L4.3787 15.8884H4.3787L4.94439 15.3227ZM7.09363 15.3227L6.52795 14.757H6.52795L7.09363 15.3227ZM16.9652 5.45117L17.5309 6.01685V6.01685L16.9652 5.45117ZM16.9652 3.30192L16.3995 3.86761V3.86761L16.9652 3.30192ZM12.8983 3.47536L13.1509 2.71628L12.8983 3.47536ZM16.4561 6.55907L15.741 6.91768L16.4561 6.55907ZM16.792 7.36926L17.5511 7.1167L16.792 7.36926ZM16.7921 11.2553L16.033 11.0027L16.7921 11.2553ZM16.4562 12.0654L15.741 11.7068L16.4562 12.0654ZM12.8983 15.1493L12.6457 14.3902L12.8983 15.1493ZM7.50274 14.9136L8.06842 15.4793L7.50274 14.9136ZM8.20173 14.8134L8.56034 14.0983L8.20173 14.8134ZM8.2019 3.81112L8.56049 4.52626L8.2019 3.81112ZM7.50293 3.71091L6.93724 4.27659L7.50293 3.71091ZM13.7082 14.8134L13.3496 14.0983L13.7082 14.8134ZM9.01228 15.1495L8.75976 15.9086L9.01228 15.1495ZM5.35364 5.86012L5.91933 5.29443L5.35364 5.86012ZM5.35355 12.7643L4.78786 12.1986L5.35355 12.7643ZM9.01228 3.47515L9.2648 4.23425L9.01228 3.47515ZM10.2356 2.33207C10.2356 1.93456 10.5578 1.61232 10.9553 1.61232V0.0123169C9.67415 0.0123169 8.63557 1.0509 8.63557 2.33207H10.2356ZM10.2356 2.90997V2.33207H8.63557V2.90997H10.2356ZM8.56049 4.52626C8.78665 4.41285 9.02188 4.31506 9.2648 4.23425L8.75976 2.71605C8.44351 2.82125 8.13741 2.94852 7.84331 3.09599L8.56049 4.52626ZM6.52817 3.86752L6.93724 4.27659L8.06861 3.14522L7.65954 2.73615L6.52817 3.86752ZM5.5103 3.86752C5.79137 3.58644 6.24709 3.58644 6.52817 3.86752L7.65954 2.73615C6.75363 1.83024 5.28484 1.83023 4.37892 2.73615L5.5103 3.86752ZM5.5103 4.8854C5.22922 4.60432 5.22922 4.1486 5.5103 3.86752L4.37892 2.73615C3.47301 3.64207 3.47301 5.11085 4.37893 6.01677L5.5103 4.8854ZM5.91933 5.29443L5.5103 4.8854L4.37893 6.01677L4.78796 6.4258L5.91933 5.29443ZM5.87701 7.62183C5.95782 7.37898 6.05559 7.14381 6.16897 6.91771L4.73873 6.2005C4.59128 6.49452 4.46404 6.80054 4.35884 7.1167L5.87701 7.62183ZM3.97483 8.59252H4.55276V6.99252H3.97483V8.59252ZM3.25508 9.31226C3.25508 8.91476 3.57732 8.59252 3.97483 8.59252V6.99252C2.69366 6.99252 1.65508 8.0311 1.65508 9.31226H3.25508ZM3.97483 10.032C3.57732 10.032 3.25508 9.70977 3.25508 9.31226H1.65508C1.65508 10.5934 2.69367 11.632 3.97483 11.632V10.032ZM4.55272 10.032H3.97483V11.632H4.55272V10.032ZM6.1689 11.7068C6.05554 11.4807 5.95778 11.2455 5.87699 11.0027L4.35881 11.5078C4.46399 11.824 4.59121 12.1299 4.73863 12.4239L6.1689 11.7068ZM5.51007 13.7392L5.91923 13.33L4.78786 12.1986L4.3787 12.6078L5.51007 13.7392ZM5.51007 14.7571C5.22899 14.476 5.22899 14.0203 5.51007 13.7392L4.3787 12.6078C3.47278 13.5137 3.47278 14.9825 4.3787 15.8884L5.51007 14.7571ZM6.52795 14.757C6.24687 15.0381 5.79115 15.0381 5.51007 14.7571L4.3787 15.8884C5.28462 16.7943 6.7534 16.7943 7.65932 15.8884L6.52795 14.757ZM6.93705 14.3479L6.52795 14.757L7.65932 15.8884L8.06842 15.4793L6.93705 14.3479ZM9.2648 14.3904C9.02183 14.3096 8.78654 14.2117 8.56034 14.0983L7.84312 15.5285C8.13728 15.6761 8.44344 15.8034 8.75976 15.9086L9.2648 14.3904ZM10.2356 16.2926V15.7147H8.63557V16.2926H10.2356ZM10.9553 17.0123C10.5578 17.0123 10.2356 16.6901 10.2356 16.2926H8.63557C8.63557 17.5737 9.67415 18.6123 10.9553 18.6123V17.0123ZM11.6751 16.2926C11.6751 16.6901 11.3528 17.0123 10.9553 17.0123V18.6123C12.2365 18.6123 13.2751 17.5737 13.2751 16.2926H11.6751ZM11.6751 15.7144V16.2926H13.2751V15.7144H11.6751ZM13.3496 14.0983C13.1236 14.2117 12.8885 14.3094 12.6457 14.3902L13.1509 15.9084C13.4669 15.8032 13.7729 15.676 14.0668 15.5286L13.3496 14.0983ZM15.3819 14.757L14.9729 14.348L13.8415 15.4793L14.2505 15.8883L15.3819 14.757ZM16.3997 14.757C16.1187 15.038 15.6629 15.038 15.3819 14.757L14.2505 15.8883C15.1564 16.7943 16.6252 16.7943 17.5311 15.8883L16.3997 14.757ZM16.3997 13.7391C16.6808 14.0202 16.6808 14.4759 16.3997 14.757L17.5311 15.8883C18.437 14.9824 18.437 13.5136 17.5311 12.6077L16.3997 13.7391ZM15.9907 13.33L16.3997 13.7391L17.5311 12.6077L17.1221 12.1987L15.9907 13.33ZM16.033 11.0027C15.9522 11.2456 15.8544 11.4807 15.741 11.7068L17.1713 12.424C17.3187 12.13 17.446 11.824 17.5511 11.5078L16.033 11.0027ZM17.9353 10.032H17.3572V11.632H17.9353V10.032ZM18.6551 9.31226C18.6551 9.70977 18.3328 10.032 17.9353 10.032V11.632C19.2165 11.632 20.2551 10.5934 20.2551 9.31226H18.6551ZM17.9353 8.59252C18.3328 8.59252 18.6551 8.91476 18.6551 9.31226H20.2551C20.2551 8.0311 19.2165 6.99252 17.9353 6.99252V8.59252ZM17.3572 8.59252H17.9353V6.99252H17.3572V8.59252ZM15.741 6.91768C15.8543 7.14379 15.9521 7.37897 16.0329 7.62183L17.5511 7.1167C17.4459 6.80052 17.3187 6.4945 17.1712 6.20046L15.741 6.91768ZM16.3995 4.88548L15.9906 5.2944L17.122 6.42577L17.5309 6.01685L16.3995 4.88548ZM16.3995 3.86761C16.6806 4.14869 16.6806 4.6044 16.3995 4.88548L17.5309 6.01685C18.4368 5.11094 18.4368 3.64215 17.5309 2.73624L16.3995 3.86761ZM15.3816 3.86761C15.6627 3.58653 16.1184 3.58653 16.3995 3.86761L17.5309 2.73624C16.625 1.83032 15.1562 1.83032 14.2503 2.73624L15.3816 3.86761ZM14.9727 4.27658L15.3816 3.86761L14.2503 2.73624L13.8413 3.14521L14.9727 4.27658ZM12.6457 4.23443C12.8884 4.3152 13.1234 4.41293 13.3494 4.52624L14.0666 3.09597C13.7727 2.94862 13.4669 2.82144 13.1509 2.71628L12.6457 4.23443ZM11.6751 2.33206V2.9102H13.2751V2.33206H11.6751ZM10.9553 1.61232C11.3528 1.61232 11.6751 1.93456 11.6751 2.33206H13.2751C13.2751 1.0509 12.2365 0.0123169 10.9553 0.0123169V1.61232ZM12.3287 9.31232C12.3287 10.0705 11.7141 10.6851 10.956 10.6851V12.2851C12.5978 12.2851 13.9287 10.9541 13.9287 9.31232H12.3287ZM10.956 7.93955C11.7141 7.93955 12.3287 8.55416 12.3287 9.31232H13.9287C13.9287 7.6705 12.5978 6.33955 10.956 6.33955V7.93955ZM9.5832 9.31232C9.5832 8.55416 10.1978 7.93955 10.956 7.93955V6.33955C9.31416 6.33955 7.9832 7.6705 7.9832 9.31232H9.5832ZM10.956 10.6851C10.1978 10.6851 9.5832 10.0705 9.5832 9.31232H7.9832C7.9832 10.9541 9.31416 12.2851 10.956 12.2851V10.6851ZM13.1509 2.71628C13.199 2.7323 13.2751 2.79207 13.2751 2.9102H11.6751C11.6751 3.54727 12.1052 4.05456 12.6457 4.23443L13.1509 2.71628ZM13.8413 3.14521C13.9248 3.06169 14.021 3.0731 14.0666 3.09597L13.3494 4.52624C13.859 4.78176 14.5221 4.72711 14.9727 4.27658L13.8413 3.14521ZM17.1712 6.20046C17.1941 6.24607 17.2055 6.34225 17.122 6.42577L15.9906 5.2944C15.5401 5.74495 15.4854 6.40808 15.741 6.91768L17.1712 6.20046ZM17.3572 6.99252C17.4753 6.99252 17.5351 7.06858 17.5511 7.1167L16.0329 7.62183C16.2128 8.16238 16.7201 8.59252 17.3572 8.59252V6.99252ZM17.5511 11.5078C17.5351 11.5559 17.4754 11.632 17.3572 11.632V10.032C16.7201 10.032 16.2128 10.4622 16.033 11.0027L17.5511 11.5078ZM17.1221 12.1987C17.2056 12.2822 17.1942 12.3784 17.1713 12.424L15.741 11.7068C15.4855 12.2164 15.5402 12.8795 15.9907 13.33L17.1221 12.1987ZM13.2751 15.7144C13.2751 15.8326 13.199 15.8923 13.1509 15.9084L12.6457 14.3902C12.1052 14.5701 11.6751 15.0774 11.6751 15.7144H13.2751ZM8.06842 15.4793C7.98491 15.5628 7.88873 15.5514 7.84312 15.5285L8.56034 14.0983C8.05074 13.8428 7.3876 13.8974 6.93705 14.3479L8.06842 15.4793ZM4.35884 7.1167C4.37485 7.06858 4.43463 6.99252 4.55276 6.99252V8.59252C5.18986 8.59252 5.69716 8.16238 5.87701 7.62183L4.35884 7.1167ZM7.84331 3.09599C7.88892 3.07312 7.9851 3.06171 8.06861 3.14522L6.93724 4.27659C7.38778 4.72713 8.05089 4.78178 8.56049 4.52626L7.84331 3.09599ZM14.0668 15.5286C14.0212 15.5514 13.925 15.5628 13.8415 15.4793L14.9729 14.348C14.5223 13.8974 13.8592 13.8428 13.3496 14.0983L14.0668 15.5286ZM4.55272 11.632C4.43459 11.632 4.37482 11.5559 4.35881 11.5078L5.87699 11.0027C5.69714 10.4622 5.18984 10.032 4.55272 10.032V11.632ZM8.75976 15.9086C8.71164 15.8926 8.63557 15.8328 8.63557 15.7147H10.2356C10.2356 15.0775 9.80538 14.5702 9.2648 14.3904L8.75976 15.9086ZM4.78796 6.4258C4.70444 6.34229 4.71586 6.24611 4.73873 6.2005L6.16897 6.91771C6.42452 6.40811 6.36988 5.74498 5.91933 5.29443L4.78796 6.4258ZM4.73863 12.4239C4.71576 12.3783 4.70435 12.2822 4.78786 12.1986L5.91923 13.33C6.36977 12.8795 6.42442 12.2164 6.1689 11.7068L4.73863 12.4239ZM8.63557 2.90997C8.63557 2.79183 8.71164 2.73206 8.75976 2.71605L9.2648 4.23425C9.80538 4.05443 10.2356 3.54711 10.2356 2.90997H8.63557Z" fill="#00C65E" mask="url(#path-1-inside-1_4659_3646)"/>
</g>
<defs>
<clipPath id="clip0_4659_3646">
<rect width="20" height="17" fill="white" transform="translate(0.955078 0.812317)"/>
</clipPath>
</defs>
</svg>
