<svg width="18" height="18" viewBox="0 0 18 18" fill="none" xmlns="http://www.w3.org/2000/svg">
<circle cx="8.57812" cy="8.79578" r="8.1" stroke="#00C65E" stroke-width="0.8"/>
<mask id="path-2-inside-1_4652_34146" fill="white">
<path fill-rule="evenodd" clip-rule="evenodd" d="M11.3409 11.7158C10.7872 12.5177 9.50167 13.0795 8.00417 13.0795C6.50672 13.0795 5.22122 12.5177 4.66752 11.7159C4.62871 11.7721 4.5935 11.8295 4.56207 11.8879H4.37695V12.6575H4.37827C4.42915 13.8704 6.03307 14.8439 8.00424 14.8439C9.9754 14.8439 11.5793 13.8704 11.6302 12.6575H11.6314V12.6121L11.6314 12.598L11.6314 12.584V11.8879H11.4464C11.4149 11.8295 11.3797 11.7721 11.3409 11.7158Z"/>
</mask>
<path fill-rule="evenodd" clip-rule="evenodd" d="M11.3409 11.7158C10.7872 12.5177 9.50167 13.0795 8.00417 13.0795C6.50672 13.0795 5.22122 12.5177 4.66752 11.7159C4.62871 11.7721 4.5935 11.8295 4.56207 11.8879H4.37695V12.6575H4.37827C4.42915 13.8704 6.03307 14.8439 8.00424 14.8439C9.9754 14.8439 11.5793 13.8704 11.6302 12.6575H11.6314V12.6121L11.6314 12.598L11.6314 12.584V11.8879H11.4464C11.4149 11.8295 11.3797 11.7721 11.3409 11.7158Z" fill="#00C65E"/>
<path d="M11.3409 11.7158L11.7506 11.4329C11.6576 11.2983 11.5045 11.2179 11.3409 11.2179C11.1773 11.2179 11.0241 11.2983 10.9312 11.4329L11.3409 11.7158ZM4.66752 11.7159L5.07721 11.433C4.98425 11.2984 4.83109 11.218 4.6675 11.218C4.50391 11.218 4.35076 11.2984 4.2578 11.433L4.66752 11.7159ZM4.56207 11.8879V12.3858C4.74532 12.3858 4.91376 12.2852 5.00056 12.1238L4.56207 11.8879ZM4.37695 11.8879V11.39C4.10197 11.39 3.87906 11.613 3.87906 11.8879H4.37695ZM4.37695 12.6575H3.87906C3.87906 12.9325 4.10197 13.1554 4.37695 13.1554V12.6575ZM4.37827 12.6575L4.87573 12.6366C4.86454 12.37 4.64513 12.1596 4.37827 12.1596V12.6575ZM11.6302 12.6575V12.1596C11.3633 12.1596 11.1439 12.37 11.1327 12.6366L11.6302 12.6575ZM11.6314 12.6575V13.1554C11.9064 13.1554 12.1293 12.9325 12.1293 12.6575H11.6314ZM11.6314 12.6121L11.1335 12.6096V12.6121H11.6314ZM11.6314 12.598L12.1294 12.6005L12.1293 12.5956L11.6314 12.598ZM11.6314 12.584H11.1335L11.1335 12.5864L11.6314 12.584ZM11.6314 11.8879H12.1293C12.1293 11.613 11.9064 11.39 11.6314 11.39V11.8879ZM11.4464 11.8879L11.0079 12.1238C11.0947 12.2852 11.2632 12.3858 11.4464 12.3858V11.8879ZM10.9312 11.4329C10.5049 12.0502 9.40994 12.5816 8.00417 12.5816V13.5774C9.5934 13.5774 11.0695 12.9851 11.7506 11.9987L10.9312 11.4329ZM8.00417 12.5816C6.59846 12.5816 5.50348 12.0502 5.07721 11.433L4.25782 11.9989C4.93896 12.9852 6.41499 13.5774 8.00417 13.5774V12.5816ZM4.2578 11.433C4.20898 11.5037 4.16408 11.5768 4.12357 11.6521L5.00056 12.1238C5.02292 12.0822 5.04845 12.0405 5.07723 11.9988L4.2578 11.433ZM4.56207 11.39H4.37695V12.3858H4.56207V11.39ZM3.87906 11.8879V12.6575H4.87485V11.8879H3.87906ZM4.37695 13.1554H4.37827V12.1596H4.37695V13.1554ZM3.88081 12.6783C3.91582 13.5129 4.47907 14.1878 5.21366 14.6317C5.95641 15.0804 6.9421 15.3418 8.00424 15.3418V14.346C7.09521 14.346 6.29336 14.1206 5.72863 13.7794C5.15575 13.4332 4.8916 13.015 4.87573 12.6366L3.88081 12.6783ZM8.00424 15.3418C9.06637 15.3418 10.0521 15.0804 10.7948 14.6317C11.5294 14.1878 12.0926 13.5129 12.1277 12.6783L11.1327 12.6366C11.1169 13.015 10.8527 13.4332 10.2798 13.7794C9.71511 14.1206 8.91326 14.346 8.00424 14.346V15.3418ZM11.6302 13.1554H11.6314V12.1596H11.6302V13.1554ZM12.1293 12.6575V12.6121H11.1335V12.6575H12.1293ZM12.1293 12.6146L12.1293 12.6005L11.1336 12.5956L11.1335 12.6096L12.1293 12.6146ZM12.1293 12.5956L12.1293 12.5815L11.1335 12.5864L11.1336 12.6005L12.1293 12.5956ZM12.1293 12.584V11.8879H11.1335V12.584H12.1293ZM11.6314 11.39H11.4464V12.3858H11.6314V11.39ZM11.8849 11.6521C11.8444 11.5767 11.7994 11.5036 11.7506 11.4329L10.9312 11.9987C10.96 12.0405 10.9855 12.0822 11.0079 12.1238L11.8849 11.6521Z" fill="#00C65E" mask="url(#path-2-inside-1_4652_34146)"/>
<path d="M11.3834 11.8118C11.3834 12.2698 11.0629 12.7307 10.4447 13.0908C9.83261 13.4474 8.97067 13.6759 8.00514 13.6759C7.03961 13.6759 6.17767 13.4474 5.56563 13.0908C4.94742 12.7307 4.62688 12.2698 4.62688 11.8118C4.62688 11.3537 4.94742 10.8928 5.56563 10.5327C6.17767 10.1761 7.03961 9.94762 8.00514 9.94762C8.97067 9.94762 9.83261 10.1761 10.4447 10.5327C11.0629 10.8928 11.3834 11.3537 11.3834 11.8118Z" fill="#00C65E" stroke="#00C65E" stroke-width="0.497897" stroke-linejoin="round"/>
<mask id="path-5-inside-2_4652_34146" fill="white">
<path fill-rule="evenodd" clip-rule="evenodd" d="M7.63368 6.87012C8.33663 6.12093 9.08866 5.34252 9.5975 4.87954C10.5644 3.99978 11.1762 3.60421 11.387 3.47873C11.4403 3.44698 11.5024 3.43524 11.561 3.4557C11.6042 3.47079 11.6606 3.49511 11.7255 3.53402L11.9986 3.28551C11.9686 3.12132 12.01 2.96009 12.1258 2.85474C12.3232 2.67515 12.6618 2.72594 12.8822 2.96817C13.1026 3.2104 13.1213 3.55234 12.9239 3.73192C12.8082 3.83723 12.6438 3.86332 12.4833 3.81804L12.2174 4.05992C12.2603 4.14231 12.2836 4.21241 12.2963 4.26384C12.3112 4.3241 12.2936 4.38486 12.257 4.43495C12.1122 4.63291 11.6608 5.20478 10.6939 6.08453C10.185 6.54751 9.33926 7.22288 8.52718 7.85215L9.73358 9.17805C9.85582 9.3124 9.846 9.52041 9.71165 9.64266L8.02158 11.1804C7.88723 11.3026 7.67922 11.2928 7.55697 11.1585L4.18035 7.44733C4.05811 7.31298 4.06793 7.10497 4.20228 6.98273L5.89235 5.44499C6.0267 5.32275 6.23471 5.33257 6.35696 5.46692L7.63368 6.87012Z"/>
</mask>
<path fill-rule="evenodd" clip-rule="evenodd" d="M7.63368 6.87012C8.33663 6.12093 9.08866 5.34252 9.5975 4.87954C10.5644 3.99978 11.1762 3.60421 11.387 3.47873C11.4403 3.44698 11.5024 3.43524 11.561 3.4557C11.6042 3.47079 11.6606 3.49511 11.7255 3.53402L11.9986 3.28551C11.9686 3.12132 12.01 2.96009 12.1258 2.85474C12.3232 2.67515 12.6618 2.72594 12.8822 2.96817C13.1026 3.2104 13.1213 3.55234 12.9239 3.73192C12.8082 3.83723 12.6438 3.86332 12.4833 3.81804L12.2174 4.05992C12.2603 4.14231 12.2836 4.21241 12.2963 4.26384C12.3112 4.3241 12.2936 4.38486 12.257 4.43495C12.1122 4.63291 11.6608 5.20478 10.6939 6.08453C10.185 6.54751 9.33926 7.22288 8.52718 7.85215L9.73358 9.17805C9.85582 9.3124 9.846 9.52041 9.71165 9.64266L8.02158 11.1804C7.88723 11.3026 7.67922 11.2928 7.55697 11.1585L4.18035 7.44733C4.05811 7.31298 4.06793 7.10497 4.20228 6.98273L5.89235 5.44499C6.0267 5.32275 6.23471 5.33257 6.35696 5.46692L7.63368 6.87012Z" fill="#00C65E"/>
<path d="M9.5975 4.87954L9.93257 5.24781L9.5975 4.87954ZM7.63368 6.87012L7.26541 7.2052L7.62806 7.60378L7.99677 7.21081L7.63368 6.87012ZM11.387 3.47873L11.1322 3.05093L11.1322 3.05094L11.387 3.47873ZM11.561 3.4557L11.7251 2.98563L11.7251 2.98563L11.561 3.4557ZM11.7255 3.53402L11.4693 3.96098L11.7867 4.15141L12.0605 3.90229L11.7255 3.53402ZM11.9986 3.28551L12.3337 3.65378L12.5381 3.4678L12.4884 3.19595L11.9986 3.28551ZM12.1258 2.85474L12.4609 3.22301L12.4609 3.22301L12.1258 2.85474ZM12.8822 2.96817L12.5139 3.30324L12.5139 3.30324L12.8822 2.96817ZM12.9239 3.73192L13.259 4.10019V4.10019L12.9239 3.73192ZM12.4833 3.81804L12.6184 3.33883L12.3525 3.26387L12.1482 3.44977L12.4833 3.81804ZM12.2174 4.05992L11.8824 3.69164L11.5987 3.94971L11.7758 4.28984L12.2174 4.05992ZM12.2963 4.26384L12.7798 4.14473L12.7798 4.14473L12.2963 4.26384ZM12.257 4.43495L12.6589 4.72885L12.6589 4.72885L12.257 4.43495ZM10.6939 6.08453L11.029 6.45281L10.6939 6.08453ZM8.52718 7.85215L8.22221 7.45858L7.79626 7.78865L8.15891 8.18722L8.52718 7.85215ZM9.73358 9.17805L10.1018 8.84297L9.73358 9.17805ZM9.71165 9.64266L9.37657 9.27438H9.37657L9.71165 9.64266ZM8.02158 11.1804L8.35666 11.5487H8.35666L8.02158 11.1804ZM7.55697 11.1585L7.92525 10.8234H7.92525L7.55697 11.1585ZM4.18035 7.44733L4.54863 7.11225L4.54863 7.11225L4.18035 7.44733ZM4.20228 6.98273L3.8672 6.61445L3.8672 6.61445L4.20228 6.98273ZM5.89235 5.44499L5.55727 5.07672L5.55727 5.07672L5.89235 5.44499ZM6.35696 5.46692L6.72523 5.13184L6.72523 5.13184L6.35696 5.46692ZM9.26242 4.51127C8.73723 4.98912 7.97289 5.78094 7.27059 6.52944L7.99677 7.21081C8.70037 6.46092 9.44009 5.69591 9.93257 5.24781L9.26242 4.51127ZM11.1322 3.05094C10.8902 3.19505 10.2517 3.61115 9.26242 4.51127L9.93257 5.24781C10.8771 4.38842 11.4623 4.01337 11.6417 3.90653L11.1322 3.05094ZM11.7251 2.98563C11.4976 2.90619 11.282 2.96176 11.1322 3.05093L11.6417 3.90653C11.5986 3.9322 11.5073 3.9643 11.3969 3.92577L11.7251 2.98563ZM11.9816 3.10706C11.8859 3.04967 11.7985 3.01125 11.7251 2.98563L11.3969 3.92577C11.41 3.93033 11.4353 3.94055 11.4693 3.96098L11.9816 3.10706ZM11.6635 2.91724L11.3904 3.16575L12.0605 3.90229L12.3337 3.65378L11.6635 2.91724ZM11.7907 2.48646C11.5218 2.73111 11.4548 3.07945 11.5088 3.37507L12.4884 3.19595C12.4857 3.18118 12.4883 3.17768 12.4864 3.18446C12.4853 3.18808 12.4831 3.19413 12.4786 3.2015C12.4741 3.20901 12.468 3.21648 12.4609 3.22301L11.7907 2.48646ZM13.2505 2.63309C12.9124 2.26155 12.2584 2.06095 11.7907 2.48646L12.4609 3.22301C12.4478 3.23486 12.4338 3.24127 12.424 3.24387C12.4152 3.24619 12.414 3.24453 12.4215 3.24566C12.4383 3.24817 12.4761 3.26162 12.5139 3.30324L13.2505 2.63309ZM13.259 4.10019C13.7266 3.67468 13.5885 3.00463 13.2505 2.63309L12.5139 3.30324C12.5518 3.34487 12.5616 3.38379 12.5626 3.40067C12.563 3.40832 12.5615 3.40688 12.5646 3.3984C12.5681 3.38892 12.5758 3.3755 12.5888 3.36365L13.259 4.10019ZM12.3481 4.29726C12.6373 4.37878 12.9902 4.34473 13.259 4.10019L12.5888 3.36365C12.596 3.35712 12.604 3.35183 12.6119 3.34801C12.6197 3.34425 12.6259 3.34259 12.6296 3.34191C12.6365 3.34062 12.6328 3.3429 12.6184 3.33883L12.3481 4.29726ZM12.5525 4.42819L12.8183 4.18632L12.1482 3.44977L11.8824 3.69164L12.5525 4.42819ZM12.7798 4.14473C12.7582 4.05733 12.7214 3.94975 12.6591 3.83L11.7758 4.28984C11.7992 4.33487 11.8091 4.36748 11.8129 4.38294L12.7798 4.14473ZM12.6589 4.72885C12.7618 4.58815 12.8374 4.37875 12.7798 4.14473L11.8129 4.38294C11.7849 4.26945 11.8255 4.18157 11.8551 4.14106L12.6589 4.72885ZM11.029 6.45281C12.0182 5.55268 12.4926 4.95621 12.6589 4.72885L11.8551 4.14106C11.7318 4.30962 11.3033 4.85687 10.3588 5.71626L11.029 6.45281ZM8.83216 8.24571C9.64348 7.61702 10.5038 6.93066 11.029 6.45281L10.3588 5.71626C9.86631 6.16436 9.03504 6.82873 8.22221 7.45858L8.83216 8.24571ZM8.15891 8.18722L9.3653 9.51313L10.1018 8.84297L8.89546 7.51707L8.15891 8.18722ZM9.3653 9.51313C9.30249 9.44409 9.30753 9.3372 9.37657 9.27438L10.0467 10.0109C10.3845 9.70363 10.4091 9.18072 10.1018 8.84297L9.3653 9.51313ZM9.37657 9.27438L7.6865 10.8121L8.35666 11.5487L10.0467 10.0109L9.37657 9.27438ZM7.6865 10.8121C7.75554 10.7493 7.86243 10.7543 7.92525 10.8234L7.1887 11.4935C7.496 11.8313 8.01891 11.856 8.35666 11.5487L7.6865 10.8121ZM7.92525 10.8234L4.54863 7.11225L3.81208 7.78241L7.1887 11.4935L7.92525 10.8234ZM4.54863 7.11225C4.61144 7.18129 4.6064 7.28818 4.53736 7.351L3.8672 6.61445C3.52946 6.92175 3.50478 7.44467 3.81208 7.78241L4.54863 7.11225ZM4.53736 7.351L6.22743 5.81327L5.55727 5.07672L3.8672 6.61445L4.53736 7.351ZM6.22743 5.81327C6.15839 5.87608 6.0515 5.87104 5.98868 5.802L6.72523 5.13184C6.41793 4.7941 5.89502 4.76942 5.55727 5.07672L6.22743 5.81327ZM5.98868 5.802L7.26541 7.2052L8.00195 6.53505L6.72523 5.13184L5.98868 5.802Z" fill="#00C65E" mask="url(#path-5-inside-2_4652_34146)"/>
</svg>
