<svg width="12" height="11" viewBox="0 0 12 11" fill="none" xmlns="http://www.w3.org/2000/svg">
<path d="M5.20254 0.878214C5.41944 0.223864 6.36151 0.223864 6.57769 0.878214L7.35131 3.21711C7.39857 3.35955 7.49045 3.48366 7.61381 3.57171C7.73717 3.65975 7.88569 3.70723 8.03816 3.70734H10.5412C11.2418 3.70734 11.5324 4.58833 10.9663 4.9933L8.94191 6.43841C8.8183 6.52653 8.72626 6.65085 8.67898 6.79355C8.6317 6.93624 8.63162 7.08998 8.67874 7.23273L9.45235 9.57162C9.66925 10.226 8.90648 10.7709 8.33893 10.3659L6.31452 8.92082C6.19103 8.83272 6.04235 8.78528 5.88975 8.78528C5.73716 8.78528 5.58847 8.83272 5.46499 8.92082L3.44058 10.3659C2.87375 10.7709 2.1117 10.226 2.32788 9.57162L3.10149 7.23273C3.14862 7.08998 3.14853 6.93624 3.10125 6.79355C3.05398 6.65085 2.96193 6.52653 2.83832 6.43841L0.814636 4.99401C0.248524 4.58904 0.539895 3.70805 1.23976 3.70805H3.74207C3.89466 3.70809 4.04335 3.66068 4.16686 3.57263C4.29036 3.48457 4.38235 3.36037 4.42965 3.21782L5.20326 0.878924L5.20254 0.878214Z" fill="#00C65E"/>
</svg>
