<svg width="12" height="11" viewBox="0 0 12 11" fill="none" xmlns="http://www.w3.org/2000/svg">
<path d="M5.19313 1.3874C5.40751 0.740657 6.33864 0.740657 6.55231 1.3874L7.31693 3.69912C7.36365 3.83991 7.45446 3.96258 7.57639 4.04961C7.69831 4.13663 7.84511 4.18355 7.99581 4.18366H10.4698C11.1622 4.18366 11.4495 5.05442 10.8899 5.45468L8.88906 6.88301C8.76689 6.9701 8.67591 7.09298 8.62918 7.23401C8.58245 7.37505 8.58237 7.52701 8.62895 7.66809L9.39357 9.97981C9.60795 10.6266 8.85405 11.1652 8.29308 10.7649L6.29219 9.33657C6.17014 9.2495 6.02319 9.20261 5.87236 9.20261C5.72154 9.20261 5.57458 9.2495 5.45253 9.33657L3.45164 10.7649C2.8914 11.1652 2.1382 10.6266 2.35187 9.97981L3.1165 7.66809C3.16307 7.52701 3.16299 7.37505 3.11626 7.23401C3.06953 7.09298 2.97856 6.9701 2.85638 6.88301L0.856206 5.45539C0.296672 5.05512 0.584657 4.18436 1.27639 4.18436H3.74963C3.90045 4.1844 4.04741 4.13755 4.16948 4.05052C4.29155 3.96348 4.38247 3.84073 4.42922 3.69983L5.19385 1.38811L5.19313 1.3874Z" fill="#363A45"/>
</svg>
