<svg width="19" height="20" viewBox="0 0 19 20" fill="none" xmlns="http://www.w3.org/2000/svg">
<path fill-rule="evenodd" clip-rule="evenodd" d="M4.85742 0.554626C2.28692 0.554626 0.203125 2.63843 0.203125 5.20892V14.5175C0.203125 17.088 2.28692 19.1718 4.85742 19.1718H14.166C16.7365 19.1718 18.8203 17.088 18.8203 14.5175V5.20892C18.8203 2.63843 16.7365 0.554626 14.166 0.554626H4.85742ZM15.0207 6.17857C15.4313 6.17857 15.5176 6.38995 15.4313 6.67754V6.67764C15.2587 7.46868 13.6049 9.79854 13.6049 9.79854C13.461 10.0285 13.4035 10.1435 13.6049 10.4024C13.6757 10.5017 13.8269 10.6498 14 10.8194C14.178 10.9938 14.3792 11.1908 14.5396 11.3804C15.1227 12.0365 15.5622 12.5898 15.6846 12.9712C15.7965 13.3539 15.6025 13.5479 15.2147 13.5479H13.8572C13.4936 13.5479 13.3105 13.3442 12.9151 12.9043C12.7474 12.7177 12.5415 12.4886 12.2673 12.2145C11.4619 11.4379 11.1168 11.3373 10.9153 11.3373C10.6421 11.3373 10.5604 11.4146 10.5604 11.8025V13.0199C10.5604 13.3539 10.4537 13.5479 9.59073 13.5479C8.15255 13.5479 6.57222 12.6746 5.45035 11.064C3.76772 8.70546 3.30743 6.92209 3.30743 6.56254C3.30743 6.36115 3.385 6.17857 3.77286 6.17857H5.13036C5.4773 6.17857 5.60782 6.33041 5.73794 6.70634C6.40195 8.6403 7.52131 10.3306 7.98151 10.3306C8.1541 10.3306 8.23323 10.2511 8.23323 9.81279V7.81368C8.20205 7.2447 8.00331 6.99863 7.8561 6.81635C7.76518 6.70378 7.69391 6.61554 7.69391 6.4906C7.69391 6.33875 7.82365 6.17857 8.0393 6.17857H10.1725C10.4602 6.17857 10.5604 6.33235 10.5604 6.67754V9.36695C10.5604 9.65455 10.6853 9.7551 10.7716 9.7551C10.9442 9.7551 11.088 9.65455 11.4044 9.33815C12.3823 8.24517 13.0727 6.56254 13.0727 6.56254C13.159 6.36115 13.318 6.17857 13.6632 6.17857H15.0207Z" fill="#00C65E"/>
</svg>
